<?xml version="1.0" standalone="no"?>
<!DOCTYPE svg PUBLIC "-//W3C//DTD SVG 20010904//EN"
 "http://www.w3.org/TR/2001/REC-SVG-20010904/DTD/svg10.dtd">
<svg version="1.0" xmlns="http://www.w3.org/2000/svg"
 width="501.000000pt" height="498.000000pt" viewBox="0 0 501.000000 498.000000"
 preserveAspectRatio="xMidYMid meet">

<g transform="translate(0.000000,498.000000) scale(0.100000,-0.100000)"
fill="#000000" stroke="none">
<path d="M2420 4270 c-163 -39 -363 -204 -439 -363 -22 -45 -47 -109 -57 -142
-19 -66 -24 -202 -11 -302 l8 -62 -35 -7 c-75 -13 -71 -52 22 -234 52 -100 63
-116 88 -120 26 -5 32 -13 53 -75 18 -54 24 -93 25 -172 l1 -102 -72 -73 c-39
-40 -94 -101 -122 -135 -70 -85 -83 -91 -396 -183 -247 -73 -375 -131 -566
-258 -74 -49 -154 -111 -180 -138 -52 -57 -231 -404 -318 -619 -29 -71 -90
-215 -136 -320 -46 -104 -100 -230 -120 -280 -21 -49 -66 -148 -101 -219 l-64
-128 0 -169 0 -169 381 0 380 0 -20 29 c-12 16 -21 32 -21 36 0 4 20 30 44 58
23 29 60 84 80 122 49 94 215 300 241 300 17 0 20 -6 18 -48 -1 -50 -20 -158
-59 -345 -13 -63 -24 -122 -24 -133 0 -18 14 -19 529 -19 l529 0 6 28 c3 15 8
45 12 67 3 22 28 126 55 230 26 105 59 253 74 331 14 77 34 163 44 190 9 27
16 54 14 60 -2 6 8 91 22 190 40 288 32 411 -37 516 -41 62 -166 266 -190 311
-24 44 -68 183 -68 213 0 21 4 24 20 19 20 -6 21 -6 6 30 -18 42 -12 63 12 43
14 -12 15 -9 9 20 -4 17 -4 46 0 62 5 26 8 28 21 18 14 -12 15 -8 9 32 -4 25
-10 56 -13 70 -4 14 8 -2 26 -35 71 -130 168 -268 201 -286 14 -7 19 -7 15 0
-4 5 2 19 12 29 15 15 30 18 73 15 119 -8 151 -9 155 -1 8 12 52 9 124 -8 36
-8 73 -15 82 -15 9 0 32 -8 52 -18 25 -13 32 -21 24 -29 -8 -8 -8 -16 2 -27 7
-9 9 -15 4 -14 -20 3 -28 -2 -15 -10 10 -6 2 -19 -35 -52 -26 -24 -55 -53 -63
-63 -9 -11 -26 -29 -38 -41 -15 -14 -20 -29 -16 -43 4 -17 -2 -24 -28 -36 -28
-12 -30 -15 -12 -15 l22 -1 -19 -46 c-20 -45 -27 -130 -12 -149 4 -5 14 -10
22 -10 12 0 15 -15 17 -70 1 -38 8 -113 16 -165 9 -52 16 -119 16 -147 1 -29
8 -95 17 -145 13 -77 14 -104 4 -160 -10 -55 -9 -71 3 -95 16 -30 32 -105 42
-188 10 -92 14 -120 26 -195 6 -41 13 -109 15 -150 5 -93 13 -170 21 -190 3
-8 5 -27 4 -42 l-3 -28 1009 0 1009 0 -7 83 c-13 139 -38 276 -80 430 -49 182
-75 255 -146 411 -31 66 -104 265 -163 441 -137 409 -157 448 -297 590 -161
164 -362 292 -533 341 -52 15 -140 47 -195 71 -55 24 -122 47 -150 50 -27 3
-60 12 -72 19 -12 8 -62 74 -111 147 -76 114 -90 141 -95 187 -12 95 -8 137
19 212 30 84 38 96 66 100 23 3 23 3 78 226 17 67 28 127 25 132 -3 6 -22 10
-42 10 l-35 0 7 58 c23 200 0 337 -75 450 -86 128 -258 265 -382 303 -63 20
-174 24 -238 9z m290 -229 c0 -6 6 -8 13 -5 8 3 26 0 40 -5 23 -9 26 -14 17
-35 -6 -17 -6 -27 1 -32 8 -4 7 -9 -1 -14 -8 -5 -7 -11 4 -22 9 -10 14 -28 11
-47 -2 -23 1 -31 11 -31 8 0 12 5 9 10 -3 6 -2 10 3 10 6 0 10 -16 9 -35 -1
-33 27 -75 50 -75 9 0 43 -36 43 -46 0 -3 -24 -4 -52 -4 -70 3 -154 -8 -201
-26 -20 -8 -49 -14 -62 -14 -14 0 -34 -9 -44 -19 -20 -20 -67 -18 -54 2 4 6 0
8 -10 4 -10 -3 -17 -2 -17 3 0 6 -9 10 -20 10 -11 0 -20 4 -20 10 0 5 -15 10
-32 10 -138 1 -238 6 -238 11 0 3 11 16 24 28 18 17 25 19 29 9 3 -8 9 -3 17
14 7 14 23 29 36 32 15 4 24 14 24 26 0 11 6 20 14 20 10 0 14 11 13 39 -1 24
-6 37 -13 34 -19 -7 -24 80 -6 95 9 6 12 12 6 12 -33 2 74 27 122 29 32 1 59
3 60 4 2 1 50 4 108 5 70 3 106 0 106 -7z m105 -21 c3 -5 1 -10 -4 -10 -6 0
-11 5 -11 10 0 6 2 10 4 10 3 0 8 -4 11 -10z m52 -436 c-3 -3 -12 -4 -19 -1
-8 3 -5 6 6 6 11 1 17 -2 13 -5z m-312 -34 c-3 -5 3 -10 14 -10 17 0 21 -7 22
-37 1 -21 1 -43 0 -49 -2 -19 71 -49 116 -48 28 1 40 -3 36 -10 -5 -8 -2 -8 8
0 13 11 106 26 161 27 19 0 25 4 20 15 -4 11 -1 14 10 9 10 -3 19 0 22 9 7 18
40 18 55 1 8 -10 8 -27 0 -63 -5 -27 -10 -59 -10 -71 1 -13 -3 -23 -8 -23 -5
0 -12 -12 -16 -27 -9 -36 -23 -53 -45 -53 -10 0 -20 -5 -22 -11 -5 -14 -78
-30 -78 -17 0 6 -9 8 -19 5 -23 -6 -77 49 -106 108 -25 50 -34 56 -65 50 -14
-2 -19 -2 -12 1 19 9 14 24 -8 24 -15 0 -20 -7 -20 -25 0 -21 5 -25 28 -25 17
0 38 -10 52 -25 26 -28 22 -42 -8 -26 -11 6 -37 8 -58 5 -54 -7 -82 -7 -136 1
-27 4 -59 3 -77 -3 -25 -9 -31 -8 -31 3 0 17 15 27 60 41 30 9 35 14 33 38 -1
16 4 41 12 57 8 15 15 45 15 66 0 31 5 42 28 55 32 20 35 21 27 8z m-205 -50
c0 -5 -5 -10 -11 -10 -5 0 -7 5 -4 10 3 6 8 10 11 10 2 0 4 -4 4 -10z m-244
-60 c8 0 11 -6 8 -15 -4 -8 -1 -15 5 -15 6 0 11 4 11 9 0 9 83 4 110 -6 8 -4
21 -5 28 -4 6 1 12 -3 12 -10 0 -8 4 -8 13 -1 10 9 19 7 35 -4 13 -9 22 -11
22 -4 0 8 6 8 20 0 24 -13 19 -48 -11 -92 -23 -31 -24 -71 -4 -101 21 -33 16
-64 -12 -64 -12 0 -22 2 -21 6 3 27 -4 31 -42 25 -24 -4 -45 -2 -54 5 -7 6
-20 9 -27 6 -8 -3 -22 8 -34 25 -11 16 -23 30 -27 30 -5 0 -8 7 -8 16 0 8 -4
12 -10 9 -6 -4 -10 5 -10 19 0 17 -5 26 -16 26 -13 0 -15 7 -10 30 4 22 1 32
-9 36 -7 3 -17 19 -20 36 -5 22 -2 33 12 43 10 7 20 9 21 4 2 -5 10 -9 18 -9z
m-128 -245 c-3 -3 -9 2 -12 12 -6 14 -5 15 5 6 7 -7 10 -15 7 -18z m664 11
c27 -20 9 -27 -23 -10 -16 8 -29 17 -29 19 0 10 36 4 52 -9z m118 0 c0 -2 -3
-11 -6 -20 -5 -12 -10 -13 -25 -5 -14 7 -19 6 -19 -2 0 -7 -3 -10 -6 -6 -13
13 7 37 31 37 14 0 25 -2 25 -4z m-83 -28 c-3 -8 -6 -5 -6 6 -1 11 2 17 5 13
3 -3 4 -12 1 -19z m-117 -52 c0 -10 8 -13 22 -11 16 3 19 2 10 -7 -14 -14 -65
-13 -89 2 -13 8 -14 10 -3 9 32 -3 51 1 45 11 -3 6 -1 10 4 10 6 0 11 -6 11
-14z m95 -117 c-4 -12 -2 -19 7 -20 7 0 0 -5 -16 -9 -29 -9 -200 -9 -188 0 16
12 11 30 -8 30 -11 0 -20 4 -20 10 0 6 46 10 115 9 110 0 116 -1 110 -20z m15
-148 c0 -12 -20 -25 -27 -18 -7 7 6 27 18 27 5 0 9 -4 9 -9z m192 -793 c-6 -6
-15 -8 -19 -4 -4 4 -1 11 7 16 19 12 27 3 12 -12z m-688 -934 c9 -4 21 -14 26
-24 11 -20 3 -53 -10 -45 -4 3 -13 -2 -20 -10 -20 -25 -49 -18 -56 13 -4 15
-11 30 -16 33 -5 3 -2 13 7 23 17 17 42 20 69 10z m1544 -360 c-4 -3 -8 -4
-11 -2 -3 2 -15 -6 -28 -17 l-24 -20 19 23 c11 12 26 22 34 22 9 0 13 -3 10
-6z m182 -314 c0 -14 -6 -49 -14 -76 -8 -27 -21 -75 -30 -106 -9 -32 -20 -58
-25 -58 -14 0 -41 78 -41 118 1 37 23 142 34 160 4 7 18 6 41 -1 28 -8 35 -15
35 -37z m-1916 -281 c27 -21 33 -53 15 -79 -9 -13 -10 -12 -5 3 7 23 -7 22
-29 -3 -13 -15 -22 -17 -36 -9 -11 5 -19 18 -19 27 0 10 -5 23 -11 29 -14 14
-4 32 25 43 30 12 30 12 60 -11z"/>
<path d="M2370 3930 c0 -5 5 -10 10 -10 6 0 10 5 10 10 0 6 -4 10 -10 10 -5 0
-10 -4 -10 -10z"/>
<path d="M2400 3860 c0 -5 5 -10 10 -10 6 0 10 5 10 10 0 6 -4 10 -10 10 -5 0
-10 -4 -10 -10z"/>
<path d="M2595 3000 c-28 -7 -28 -8 -5 -9 14 0 32 4 40 9 17 11 8 11 -35 0z"/>
<path d="M2513 2993 c9 -2 25 -2 35 0 9 3 1 5 -18 5 -19 0 -27 -2 -17 -5z"/>
<path d="M2115 1120 c-3 -6 1 -7 9 -4 18 7 21 14 7 14 -6 0 -13 -4 -16 -10z"/>
<path d="M2155 1120 c3 -5 8 -10 11 -10 2 0 4 5 4 10 0 6 -5 10 -11 10 -5 0
-7 -4 -4 -10z"/>
<path d="M2124 1085 c-7 -18 3 -35 21 -35 18 0 26 15 19 34 -8 20 -33 21 -40
1z"/>
<path d="M1931 141 c-14 -9 -9 -41 7 -41 15 0 34 28 27 40 -8 12 -16 13 -34 1z"/>
</g>
</svg>
